<?xml version="1.0" encoding="utf-8"?>
<!-- Generated by IcoMoon.io -->
<!DOCTYPE svg PUBLIC "-//W3C//DTD SVG 1.1//EN" "http://www.w3.org/Graphics/SVG/1.1/DTD/svg11.dtd">
<svg version="1.1" xmlns="http://www.w3.org/2000/svg" xmlns:xlink="http://www.w3.org/1999/xlink" width="640" height="640" viewBox="0 0 640 640">
<g id="icomoon-ignore">
</g>
<path d="M577.139 506.354l-128.791-128.791c19.426-31.934 30.604-69.354 30.604-109.467 0-116.42-100.913-217.333-217.368-217.333-116.42 0-210.823 94.404-210.823 210.823 0 116.453 100.879 217.368 217.333 217.368 38.716 0 74.977-10.498 106.161-28.729l129.473 129.507c12.712 12.678 33.229 12.678 45.873 0l32.138-32.104c12.644-12.678 8.043-28.627-4.601-41.272zM115.653 261.586c0-80.601 65.333-145.968 145.933-145.968 80.634 0 152.477 71.842 152.477 152.477s-65.333 145.968-145.968 145.968-152.443-71.842-152.443-152.477z"></path>
</svg>
